HIERARCHY
ROOT Hips
{
  OFFSET 0.0 0.0 0.0
  CHANNELS 6 XPOSITION YPOSITION ZPOSITION ZROTATION XROTATION YROTATION 
  JOINT LeftUpLeg
  {
    OFFSET 0.08945800000000001 -0.0866707 0.0010165200000000001
    CHANNELS 3 ZROTATION XROTATION YROTATION 
    JOINT LeftLeg
    {
      OFFSET 0.0 -0.444227 0.013727000000000001
      CHANNELS 3 ZROTATION XROTATION YROTATION 
      JOINT LeftFoot
      {
        OFFSET -0.0025354900000000005 -0.42092399999999996 -0.014605900000000002
        CHANNELS 3 ZROTATION XROTATION YROTATION 
        End Site
        {
          OFFSET -0.0004 -0.0441509 0.08499100000000001
        }
      }
    }
  }
  JOINT Spine
  {
    OFFSET 0.0 0.118905 0.0
    CHANNELS 3 ZROTATION XROTATION YROTATION 
    JOINT Spine1
    {
      OFFSET 0.0 0.25657399999999997 0.00127663
      CHANNELS 3 ZROTATION XROTATION YROTATION 
      End Site
      {
        OFFSET -0.0029 0.21508359999999999 0.02525291
      }
      JOINT RightArm
      {
        OFFSET -0.162727 -0.05365632 0.0010212299999999997
        CHANNELS 3 ZROTATION XROTATION YROTATION 
        JOINT RightForeArm
        {
          OFFSET -0.26364 0.00099144 -0.0142434
          CHANNELS 3 ZROTATION XROTATION YROTATION 
          End Site
          {
            OFFSET -0.220324 0.0008536199999999999 0.010221599999999999
          }
        }
      }
      JOINT LeftArm
      {
        OFFSET 0.162727 -0.053656319900000006 0.0010212299999999997
        CHANNELS 3 ZROTATION XROTATION YROTATION 
        JOINT LeftForeArm
        {
          OFFSET 0.26259699999999997 0.00099144 -0.0142434
          CHANNELS 3 ZROTATION XROTATION YROTATION 
          End Site
          {
            OFFSET 0.220902 0.0008536199999999999 0.010221599999999999
          }
        }
      }
    }
  }
  JOINT RightUpLeg
  {
    OFFSET -0.08945800000000001 -0.0866707 0.0010165200000000001
    CHANNELS 3 ZROTATION XROTATION YROTATION 
    JOINT RightLeg
    {
      OFFSET 0.0 -0.444227 0.013727000000000001
      CHANNELS 3 ZROTATION XROTATION YROTATION 
      JOINT RightFoot
      {
        OFFSET 0.0025354900000000005 -0.42092399999999996 -0.014605900000000002
        CHANNELS 3 ZROTATION XROTATION YROTATION 
        End Site
        {
          OFFSET 0.0004 -0.0441509 0.08499100000000001
        }
      }
    }
  }
}
MOTION
Frames: 4
Frame Time: 0.033333
0.472314 1.03766812108325 -0.00342681 0.4232480131650462 0.875590017512555 -87.18190060387676 0.18029399556074072 -2.694669923572114 4.685770171590854 1.6931399689443978 12.391199418642902 14.3086000045265 -3.767675780151604 -13.42576475713015 -0.011078315037236103 2.8857598335288532 -14.196599416290278 0.5150709686130084 -2.9631298685692307 23.677699408853574 1.1637999881032923 80.51713861556172 -24.62351497681297 8.54647142069074 6.829739658187999 27.277099818423576 9.065330156085343 -82.57692559375162 -10.4691192994042 -12.605490627436529 -13.204100359127494 12.384499856840767 -11.232900080698998 -0.1801550038791736 -5.904869719092097 -4.920140002110202 -1.2517099655283512 12.162599817311746 -9.741449728251258 2.9935308271215457 -10.789061581826875 -0.1966231369168165 
0.47175600000000006 1.0377181210832498 -0.00298599 0.4177469894796885 0.9174849037775323 -87.08049961545875 0.19282399093334235 -2.659049846720263 4.687330442929379 1.7149499369030121 12.378700172461778 14.22640038541269 -3.7494553967669484 -13.455064561122212 -0.011079640720925108 2.799919937030837 -14.145199681464993 0.4811160171756123 -2.8328600184071044 23.72200172335757 1.0962899714600631 80.42745140157028 -24.783455809059866 8.350393765092598 6.813050090951073 27.57119922634786 8.898739280907792 -82.65763793917367 -11.678853376892885 -12.439762063641693 -13.322200306292538 13.489200139046643 -10.555600593353962 -0.1542790056313522 -5.790999793457406 -4.925280146347459 -1.2570498927988318 12.034999077011214 -9.850459547404661 2.9852637369048916 -10.751041333812 -0.1965986176049132 
0.47077199999999997 1.0377981210832496 -0.00213621 0.4683939894336702 1.0354499547064688 -86.90180137620371 0.2585779952894303 -2.686479886427034 4.696429962451128 1.7522399950069314 12.401200523135094 14.041299697584405 -3.7043360208834906 -13.52556406618779 -0.011082867384998344 2.753110089327801 -14.11920056638934 0.41782300201463135 -2.7461900404815203 23.819301183178986 1.0083798873132985 80.43687706262489 -25.137652343943802 8.11335546504189 6.815669895384596 27.943299394593694 8.536840000187375 -82.66902386452008 -13.647853480634991 -12.140774801592617 -13.543100576881798 15.39830119131503 -9.408659859999789 -0.06443859930137211 -5.642020134167911 -4.8902498136417565 -1.2644099552380494 11.776100756521881 -10.078799601547358 3.0009097793026864 -10.66966133739859 -0.19654625726801417 
0.46980600000000006 1.0378381210832497 -0.00110497 0.6019279763279747 1.1687499542608475 -86.76730129106781 0.33136201186939357 -2.8164302118020506 4.707979812337619 1.7739899853668966 12.456200621426621 13.876199511193212 -3.6610864092853235 -13.613614596099364 -0.011087052043133634 2.8359099113149266 -14.245099735812893 0.39279300006875273 -2.8889898726760346 24.020699556140567 1.0227099443571026 80.59194284735169 -25.432504780224082 7.958273458615812 6.827399891510447 27.98629885051351 8.260909749228968 -82.60815321863693 -15.254930397994583 -11.905082902582048 -13.773400041542642 17.10930114444366 -8.374720337595244 0.006987480289068078 -5.594099953837925 -4.857140044753297 -1.2383799975894252 11.531500583286322 -10.253999930173709 3.0649050232877095 -10.598000700174108 -0.19649933973811 
